<?xml version="1.0" encoding="UTF-8"?>
<svg version="1.1" viewBox="0 0 2048 2048" width="1280" height="1280" xmlns="http://www.w3.org/2000/svg">
<path transform="translate(54,1022)" d="m0 0h853l18 2 17 4 17 6 21 11 16 12 10 9 13 13 4 5v2h3l2-4 9-11 14-13 15-11 13-8 19-8 20-6 11-2 11-1h854l1 4v235l52 1v148l1 30-1 1-366 1h-68l-4-1 7 8 15 14 14 14-1 4-11 8-15 12-28 21-13 10-18 14-12 9-26 20-12 9-30 23-21 16-20 15-14 11-17 13-21 16-16 12-18 14-21 16-13 10-12 9-51 39-38 29-13 10-17 13-15 11-3 1h-540l-27 1-12 15-11 14-13 16-11 14-14 17-11 14-13 16-11 14-14 17-11 14-13 16-11 14-11 13-7 9-5-2-8-7-10-8-3-1-2 5-12 15h-392l2-4 10-13 4-4-2-4-17-14-2-4 11-13 11-14 8-9 11-14 10-11 11-14 9-10 11-14 8-9 11-14 9-10 11-14 9-10 11-14 9-10 11-14 9-10 11-14 9-10 11-14 9-10 11-14 9-10 11-14 9-10 11-14 9-10 11-14 9-10 11-14 9-10 11-14 9-10 11-14 9-10 11-14 9-10 11-14 9-10 11-14 7-8h2l2-4 14-14 7-8 20-20 8-7 16-13 8-6 1-2-5 1h-151l-330-1v-179h52zm966 419-38 1 7 16 5 17 2 12v25l-4 20-6 16-3 9h146l7-3 14-10 66-46 16-11 43-30 16-11 4-3v-2z" fill="#7247AA"/>
<path transform="translate(1e3)" d="m0 0h9l6 3 40 13 696 232 41 14 25 8 1 2-14 5-65 22-22 7h-2v302l1 2 14 5 16 9 14 11 8 8 10 14 8 15 6 18 2 11 1 25v138l-4 2h-216l-1-2v-152l2-17 4-15 7-16 8-13 12-14 10-9 14-9 15-7 8-2v-267l1-16-108 36-43 14-29 10-1 469-11 8-16 9-28 13-29 11-35 11-38 10-42 9-48 8-49 6-44 4-50 3-23 1h-117l-59-3-56-5-33-4-46-7-45-9-25-6-30-8-43-14-29-12-24-12-15-10-5-4-1-468-25-9-315-105-1-3 807-269z" fill="#2B4DA5"/>
<path transform="translate(671,1441)" d="m0 0h207l16 2 12 5 13 9 8 9 7 12 4 16v10l-4 16-5 10-7 9-8 7-9 5-10 4-9 2h-5v59l268-1 8-4 34-24 16-11 10-7 14-10 12-8 14-10 23-16 19-13 23-16 17-12 24-16 25-13 21-7 19-4 7-1h37l19 3 20 6 15 6 17 9 9 6-2 4-28 22-16 12-18 14-20 15-14 11-16 12-18 14-20 15-13 10-17 13-18 14-20 15-39 30-21 16-16 12-13 10-38 29-13 10-30 23-10 7-2 1-21 1-555 1-10 11-9 12-10 12-7 9-9 11-7 9-11 13-7 10h-2l-2 4-13 16-11 14-9 11-13 16-11 14-14 17-7 9-12 15-11 14-5 6 1 4 13 11 6 5-3 6-12 15h-392l2-4 10-13 5-6 1 2 4 2 9 7 2 1v2l4 2h4l5-5 9-10 8-10 12-14 11-14 9-10 9-11 11-13 8-10 12-14 8-10 11-13 9-11 11-13 9-11 12-14 8-10 12-14 11-14 9-10 11-14 9-10 11-14 9-10 11-14 9-10 11-14 9-10 9-11 11-13 9-11 11-13 9-11 11-13 9-11 11-13 9-11 12-14 8-10 12-14 8-10 14-15 14-14 7-8 7-7 8-7 16-13 13-9 20-12 25-12 18-7 25-7 19-4z" fill="#FCFCFD"/>
<path transform="translate(595,407)" d="m0 0 9 2 40 13 41 14 156 52 43 14 87 29 31 11 8-1 62-21 300-100 40-13 3 1v413l-3 3-27 11-28 10-35 10-38 9-36 7-46 7-44 5-49 4-40 2-34 1h-52l-44-1-55-3-54-5-51-7-45-8-39-9-33-9-30-10-33-13-4-2-1-2v-403z" fill="#DDBCFE"/>
<path transform="translate(1e3 64)" d="m0 0h8l609 203 9 4-2 2-19 7-588 196-11 4-7-1-44-15-43-14-41-14-43-14-36-12-41-14-43-14-41-14-43-14-41-14-43-14-41-14-43-14-41-14-29-10-4-2v-2l41-14 540-180z" fill="#B8AFFE"/>
<path transform="translate(1150,1081)" d="m0 0h776l8 1 1 1v179l-3 1h-877l-2-3v-31l1-59 3-16 4-12 7-14 10-13 11-11 14-10 15-7 14-4z" fill="#FCFCFD"/>
<path transform="translate(146,1081)" d="m0 0h752l19 2 16 5 17 9 9 7 10 9 10 13 7 12 5 13 3 13 1 9v88l-5 2h-875l-2-2v-178l1-1z" fill="#FBFBFD"/>
<path transform="translate(74,1321)" d="m0 0h1878l34 1 1 2v57l-1 1-156 1h-1637l-130-1-1-1v-59z" fill="#B0E2F5"/>
<path transform="translate(534,388)" d="m0 0h1l1 88 1 6-1 2 2 1h-2v2l4-1 4-11h1v7l1-5-1-4 2-3 1-6h-2l-1-3h4l2 3 4-1 7 1v4l-1 2h-9l1 7 4-1h3l2 2-1 4 5 1-3-5 3-6 3 3v9l5 1 1-3 4-1 2 1-1-3 3-7h1l1 5 2-2 1 1 2-6 2 1 1-46h1l1 398 9 3 23 9 19 7 30 9 44 11 41 8 46 7 33 4 44 4 55 3 44 1h52l34-1 54-3 54-5 46-6 41-7 38-8 35-9 29-9 32-12 14-6h2l1-415h1v73h3l1-3 2 1 2 15v13h3l1-6 3-2 1 4v6l3 10 7 2v-5l2-1-1-6-1-2-1-11-1-3 4-3 2-4h2v-6h3v-2l-3 1 1-5 2-3h2l2-19 2-4h3l1-6 1-5 4 3v2l2 2 1 4 1 20 2-5h2v393l-11 8-16 9-28 13-29 11-35 11-38 10-42 9-48 8-49 6-44 4-50 3-23 1h-117l-59-3-56-5-33-4-46-7-45-9-25-6-30-8-43-14-29-12-24-12-15-10-5-4z" fill="#7247AA"/>
<path transform="translate(1654,345)" d="m0 0h1l1 138 3 5 1-1-2-4 2-5h2v-8l1-6v-16l2-7 3-1 2 6 11 1 1 1 1-2-2-1 2-3 2 2 3-3 4-2 1-4h-2v2h-3l-2-5 1-5 6-2v-2h2l2-11 4-8 3-7 4-1 3-1 2-7h1l1 51v169l1 2 14 5 16 9 14 11 8 8 10 14 8 15 6 18 2 11 1 25v138l-4 2h-216l-1-2v-152l2-17 4-15 7-16 8-13 12-14 10-9 14-9 15-7 8-2z" fill="#7247AA"/>
<path transform="translate(1523,301)" d="m0 0h3l-1 4-3 3-504 168-11 4-7-1-44-15-43-14-41-14-43-14-36-12-41-14-43-14-41-14-43-14-41-14-12-4v-2l-9-2-6-2 1-2 5 1 9 2 3 2 9 1 5 3 9 2 1 1 10 2 21 6 9 3 16 4 13 4 16 5 27 8 26 8 22 6 13 4 24 7 40 10 9 2h24l24 3 17 3 15 4 26 7 14 4 9 2 13 1 3 2h38l2 4 1-2 4-2 10 1 14-2 1-3 10-1v-2l19-4 21-7 9-2 14-4 10-2 9-4 20-7 3-2 15-4 6-2 7-1 4-2 12-3 14-4 6-2 17-5 4-2 12-4 16-5 8-1-1 2-7 2-3 1 1 2 3 2-11 3v2l-12 2v2l-11 3-3 2-9 2-7 3-6 1-1 2-7 2h-4v2l-31 11 67-20 29-9 33-10 12-4 24-7 22-5 18-5 6-2 1-3h9l2-4v-3l3 2 6-1 1-4 5-1 1 3 5-2-2-1v-2l66-20 21-6z" fill="#CAB4FE"/>
<path transform="translate(1982,1326)" d="m0 0 2 1 1 2 1 12v29l-3 7-7 3h-81l-2 1h-490v-2h-21l-32-1h-438l-69 1h-25l-17 1h-48l-34-1h-105l-3 1v-2l-8 1h-21l-30-1h-174l-118 1-73 1-1-1-31-1-14 1-5-1-2 1-28 2-43 1v-45l2 4v7l3-1 4 8 3 13 2 2 10 2 7 1 4-1h13 4 19l8 1 9-2 2 1h11l4-1 9 1 22-2 7 1 8 1v-2h208l18 1h22l23 1h19l30-1h101l9-1 6 1 11-1h183l58 1 6 1 7-1 16 1h20l3-1 2 1h31l9-1 4 1 7-1 14 1 15-1h66l2-1h95l2 1 8-1 43 1 22 1h88l32-1h57l17 1h217l51-1 4-1h35l86 1 18-1 10 1 7-1 3 1 11-1 13 1 7-1 19 1 1 1h5l6-2 14 1-1-6 1-4-1-11 3-9 1-11z" fill="#B0ECF5"/>
<path transform="translate(1674,666)" d="m0 0h20l12 4 11 7 7 7 6 10 4 11 1 6v94l-1 1-95 1-5-2v-90l1-11 5-12 7-10 10-9 13-6z" fill="#FBFAFD"/>
<path transform="translate(196,1322)" d="m0 0h1790v1l-116 1h-28l-57 2-14 1-89 1h-237l-2-1-7 1h-4-7-2-96l-4-1-5 1-4-1-6 1h-9l-5-1-7 1-13-1-9 1h-106l-5-1-7 1-5-1h-9l-5 1-5-1h-29l-4 1-8-1h-104l-6-1h-43l-7-1-16 1-134-2h-85l-41 1-4 1v-2l-7 1h-12l-1 2v-2l-16 1-4 1v-2l-7 2h-121l-3 1-6-1-5 1h-102l-75-1-3-1-86-2z" fill="#ACDBF0"/>
<path transform="translate(136,1377)" d="m0 0 7 1 15-1 28 1 2 1 72-1 140-1h155l27 1h29v2l3-2h116l26 1h46l22-1h34l55-1h447l33 1h8l2 1v2h-1297v-1l28-2z" fill="#AEE2F3"/>
<path transform="translate(1412,407)" d="m0 0 3 1v413h-1l-1-42-1-176-1-31v-18l1-3-1-11v-11l-2-25-2-8-2 7-1 14-2 1-1-11-2-1-3-9h-2l-4-7-4-2-1-1-3-14-4-4-2-6v-4l-4-1 1-5 3-2 1-5-5-5-4-2v-3l8-3 5-4 8-4 12-8h2l-3-3-4 2-6 2-7 1h-4l2-2z" fill="#C8B4FE"/>
<path transform="translate(694,374)" d="m0 0 9 2 12 3v2l12 2 3 2 9 2 3 2 9 1 6 3 9 2 1 1 9 2 4 2 8 2 4 2 9 2 5 2 8 2 21 6 18 6 9 2 9 3 8 3 26 8 37 11 57 19h11l20-6 24-8 21-6 18-6 17-5 31-10 21-6 31-10 21-7 21-6 31-10 1 2-35 12-30 10-6 1-1 4-177 59-11 4-7-1-44-15-43-14-41-14-43-14-36-12-41-14-43-14-14-5z" fill="#DABBFE"/>
<path transform="translate(595,407)" d="m0 0 9 2 40 13 21 7v1l-10-1 2 4 28 14 8 3 10 4 2 4h-10l-19-4-13-3-9-2 1 4-6 3-16 1-4 1-7-1-9 2-2 2-1 7-2-4-2-10-2-2-2-18-2-7-1-4v-6h-2l-1 115-1 289h-1v-403z" fill="#CAB4FE"/>
<path transform="translate(1056,1158)" d="m0 0h1l-1 13v90h810l66 1v1h-877l-2-3v-31l1-59z" fill="#C9B5FE"/>
<path transform="translate(1500,1377)" d="m0 0h254l107 2 31 1v1h-486l1-3h64z" fill="#B0E6F5"/>
<path transform="translate(1631,1378)" d="m0 0h35l82 1 144 1v1h-434v-1l130-1h17z" fill="#ACDCF0"/>
<path transform="translate(615,1378)" d="m0 0h115l26 1h46l22-1h24v3h-235z" fill="#B0E6F5"/>
<path transform="translate(595,407)" d="m0 0 3 1h-2l1 15-1 109-1 289h-1v-403z" fill="#C0B1FE"/>
<path transform="translate(1221,1377)" d="m0 0m-157 0h156l1 2-4 1h-159l-1-2z" fill="#B0E6F5"/>
<path transform="translate(1500,1377)" d="m0 0h68l1 3-111 1h-52l1-3h64z" fill="#AFE5F4"/>
<path transform="translate(1413,552)" d="m0 0h1v227h-1l-1-176-1-31v-18z" fill="#CBB5FF"/>
<path transform="translate(136,1377)" d="m0 0 7 1 15-1 28 1 2 1h30v2h-112v-1l28-2z" fill="#AFE5F4"/>
<path transform="translate(1277,386)" d="m0 0m-3 1h3l-1 3-78 26h-2v-3l8-2 4-2 8-2 4-2 38-13z" fill="#C6B3FE"/>
<path transform="translate(470,299)" d="m0 0h8l4 2 11 2 4 2 8 2 9 3 3 2-2 3-11-3-20-7-14-5z" fill="#CBB5FF"/>
<path transform="translate(939,505)" d="m0 0h6l9 3 22 7 2 4-5 1-13-5-9-3-7-3-5-2z" fill="#7247AA"/>
<path transform="translate(502,1507)" d="m0 0 2 1-47 47v-3l22-22 7-8 7-7 8-7z" fill="#D6C9FE"/>
<path transform="translate(63,1377)" d="m0 0 7 1 14 1h16l3 2-40 1z" fill="#AFE3F4"/>
<path transform="translate(1266,388)" d="m0 0 1 2-35 12-6 2-4-1 7-3 16-5z" fill="#DEBDFE"/>
<path transform="translate(643,424)" d="m0 0 10 1 12 4v1l-10-1-5 1-5-2z" fill="#D1B8FE"/>
<path transform="translate(63,1323)" d="m0 0h17l-2 2-12 3-3 4z" fill="#ACDCF0"/>
<path transform="translate(659,363)" d="m0 0 7 1 17 6v1h-7l-17-6z" fill="#D2B8FE"/>
<path transform="translate(628,420)" d="m0 0 9 1 5 2-1 4h-2l-1-2-5-1-4 1-3-2v-2z" fill="#DEBDFE"/>
<path transform="translate(1372,420)" d="m0 0 4 1-5 3-10 2-3 2-10 1 3-2z" fill="#C0B1FE"/>
<path transform="translate(1985,1370)" d="m0 0h1v11h-11l1-2 7-3z" fill="#B0E6F5"/>
<path transform="translate(1985,1343)" d="m0 0h1v26l-2-1-1-15z" fill="#AFE5F4"/>
<path transform="translate(1396,412)" d="m0 0h2l-2 4-6 2-7 1h-4l2-2z" fill="#C4B3FE"/>
<path transform="translate(1617,268)" d="m0 0 9 2 1 2-5 2-5-1z" fill="#C5B3FE"/>
<path transform="translate(1407,1378)" d="m0 0h11l3 1v2h-15z" fill="#AEE2F3"/>
<path transform="translate(850,1378)" d="m0 0h7l7 2v1h-16z" fill="#AEE2F3"/>
<path transform="translate(1675,452)" d="m0 0h5l-3 2h-2v5h-4l-1-3 3-3z" fill="#2A4DA5"/>
<path transform="translate(694,374)" d="m0 0 9 2 3 3-9-1-3-2z" fill="#D5B9FE"/>
<path transform="translate(1018,475)" d="m0 0 3 1-10 4-7 2-1-2z" fill="#7247AA"/>
<path transform="translate(555,483)" d="m0 0 5 1v6l-2 1-3-5z" fill="#2C4CA5"/>
<path transform="translate(1238,399)" d="m0 0m-4 1h4l-1 3-9 1v-2z" fill="#C8B4FE"/>
</svg>
