<?xml version="1.0" encoding="UTF-8"?>
<svg version="1.1" viewBox="0 0 2048 1014" width="1280" height="1280" xmlns="http://www.w3.org/2000/svg">
<path transform="translate(0)" d="m0 0h2048v1014h-2048z" fill="#FBFBFB"/>
<path transform="translate(894,122)" d="m0 0h46l17 1v696l-1 1h-208l-10-1-8-9-13-18-34-51-11-18-5-11-6-24-13-61-18-80-8-32 2-7 12-17 13-18 16-23 11-16 14-20 11-16 16-23 12-17 42-60 16-23 12-17 13-19 12-17 14-20 11-16 10-14 24-34z" fill="#E29B41"/>
<path transform="translate(259,134)" d="m0 0 4 4 21 31 14 20 22 32 27 40 13 19 23 34 17 25 11 16 17 25 11 16 56 83 8 12 19 28 13 19 10 15 15 23-1 7-16 23-11 16-13 19-16 23-28 40-24 34-16 23-14 20-12 17-15 21-2 1h-79l-46-1-7-1-1-40z" fill="#E29B41"/>
<path transform="translate(267,123)" d="m0 0h256l11 49 19 86 24 106 19 85 7 30 6 26v7l-5 6-10 15-14 20-10 14h-3l-11-17-14-21-13-19-15-22-10-15-15-22-19-28-22-33-10-14-50-75-9-13-16-24-14-20-8-12-13-19-17-25-14-21-14-20-12-17z" fill="#CB7735"/>
<path transform="translate(870,121)" d="m0 0h10l-5 10-13 19-13 18-11 16-12 17-14 20-16 23-11 16-10 14-16 23-13 19-13 18-11 16-14 20-24 34-14 20-13 19-14 20-12 17-7 9-4 6-2-1-7-29-19-87-17-74-16-70-15-66-9-40v-5l299-1z" fill="#F8C98B"/>
<path transform="translate(568,589)" d="m0 0 4 5 32 48 19 28 21 31 23 34 48 72 8 11v1h-314l2-4 14-21 14-20 11-16 12-17 28-40 12-17 11-16 28-40 12-17 11-16z" fill="#020101"/>
<path transform="translate(1061,602)" d="m0 0h79l21 1 12 7 7 6 5 13 2 10v76l-4 15-3 6-8 7-10 5 1 5 11 22 13 23 11 19v2h-44l-5-3-12-23-12-22-10-18-5-3h-7l-1 1-1 68h-40z" fill="#030101"/>
<path transform="translate(1122,122)" d="m0 0h41l9 21 11 28 15 36 12 29 4 8v-122h23l19 1v46l-1 170h-40l-4-9-16-39-16-38-14-35-1 75-1 47-40-1-1-1-1-215z" fill="#E29C43"/>
<path transform="translate(1208,363)" d="m0 0h42l3 9 15 37 16 39 12 29 4 7v2h2l-1-10v-113h40l1 1-1 214-3 1h-35l-4-2-20-50-14-34-12-30-4-8v123l-1 1h-40z" fill="#020101"/>
<path transform="translate(1314,121)" d="m0 0h52l17 3 10 5 7 8 4 9 1 6 1 33-1 1h-40l-1-2-2-19h-37l-6 1v123l2 6h37l5-1 1-5v-26l-22-1 1-14 3-26 1-2h58v89l-2 9-6 9-8 7-8 3-5 1-17 1h-46l-11-2-9-4-8-6-6-10-2-8-1-11v-150l5-10 8-8 13-7z" fill="#E29C44"/>
<path transform="translate(1329,602)" d="m0 0h24l2 5 5 21 18 67 17 63 9 33 7 26v2h-43l-2-6-5-25-2-4-54-1-2 15-6 21-41-1 2-12 9-35 10-37 12-45 7-26 10-36 6-24z" fill="#020101"/>
<path transform="translate(1463,602)" d="m0 0h20l18 1 13 3 10 6 5 8 3 11 1 14v20l-1 1h-39l-1-13-3-7-1-1h-29l-3 4-1 4v15l2 5 17 11 28 16 14 9 10 8 8 11 1 3v58l-2 10-6 9-7 6-9 3-5 1-15 1h-37l-19-2-10-3-7-6-5-12-2-14-1-31 18-1h23l1 1 1 21 2 4 8 1h18l10-2 3-4v-18l-5-7-17-11-26-15-18-12-9-9-4-11-2-13v-37l2-14 4-8 5-5 8-5 12-3z" fill="#020101"/>
<path transform="translate(1450,122)" d="m0 0h59l29 1-1 16-3 25h-68v64h42l16 1-4 40-14 1h-39l-1 27h57l14 1v17l-2 23-1 1h-109l-1-129v-87z" fill="#E29C43"/>
<path transform="translate(1425,363)" d="m0 0h114l-5 41-68 1-1 62 59 1-1 13-4 28h-54l1 28h73l-2 18-3 23-1 1h-109v-215z" fill="#020101"/>
<path transform="translate(1362,363)" d="m0 0h41v55l-1 161h-40z" fill="#020101"/>
<path transform="translate(1207,602)" d="m0 0h39v217h-36l-4-1v-215z" fill="#020101"/>
<path transform="translate(1060,123)" d="m0 0h41v179l-1 37h-39l-1-161z" fill="#E29C43"/>
<path transform="translate(613,526)" d="m0 0 2 1 7 35 15 70 12 49 1 9-4-4-58-87-10-14-3-7 7-10 10-16 12-17z" fill="#F8C98B"/>
<path transform="translate(1102,644)" d="m0 0h36l5 2 3 5 1 8v39l-3 8-3 2h-39l-1-1v-62z" fill="#FBFAF8"/>
<path transform="translate(1332,669)" d="m0 0 3 3 9 40 6 27v3l-3 1h-31v-9l10-43 5-20z" fill="#FBF7F4"/>
<path transform="translate(276,133)" d="m0 0 4 2 8 10 12 19 3 6-1 2-5-5-21-30z" fill="#DC923F"/>
</svg>
